<?xml version="1.0" encoding="UTF-8"?>
<svg xmlns="http://www.w3.org/2000/svg"
     viewBox="0 0 800 1560" width="800" height="1560"
     font-family="'Times New Roman', Times, serif" font-size="12">

  <defs>
    <marker id="arr" markerWidth="9" markerHeight="9" refX="8" refY="4" orient="auto">
      <polygon points="0 0, 9 4, 0 8" fill="#000"/>
    </marker>
  </defs>

  <!-- ─── background ─── -->
  <rect width="800" height="1560" fill="#fff"/>

  <!-- ════════════════════════════════════════════════════
       LEGEND  (top-left)
  ════════════════════════════════════════════════════ -->
  <rect x="10" y="10" width="220" height="114" fill="none" stroke="#000" stroke-width="1"/>
  <text x="18" y="27"  font-weight="bold" font-size="11">Legenda</text>
  <line x1="10" y1="31" x2="230" y2="31" stroke="#000" stroke-width="0.6"/>

  <!-- rect = processo -->
  <rect x="18" y="38" width="56" height="18" fill="none" stroke="#000" stroke-width="1"/>
  <text x="82" y="51"  font-size="10.5">Processo / Acção</text>

  <!-- diamond = decisão -->
  <polygon points="46,73 74,63 102,73 74,83" fill="none" stroke="#000" stroke-width="1"/>
  <text x="112" y="77" font-size="10.5">Decisão (Sim / Não)</text>

  <!-- rounded rect = resultado -->
  <rect x="18" y="92" width="56" height="18" rx="9" fill="none" stroke="#000" stroke-width="1"/>
  <text x="82" y="105" font-size="10.5">Início / Resultado final</text>

  <!-- ════════════════════════════════════════════════════
       CENTRE-LINE  x=400
  ════════════════════════════════════════════════════ -->

  <!-- ── N0  START ── -->
  <!-- y=10..40 -->
  <rect x="245" y="10" width="310" height="30" rx="15"
        fill="none" stroke="#000" stroke-width="1.5"/>
  <text x="400" y="30" text-anchor="middle" font-weight="bold">process_article(row)</text>

  <!-- arrow N0→N1 -->
  <line x1="400" y1="40" x2="400" y2="62" stroke="#000" stroke-width="1.2" marker-end="url(#arr)"/>

  <!-- ── N1  clean_pid ── -->
  <!-- y=64..106 -->
  <rect x="252" y="64" width="296" height="42" fill="none" stroke="#000" stroke-width="1.2"/>
  <text x="400" y="81"  text-anchor="middle" font-weight="bold">clean_pid(raw_id)</text>
  <text x="400" y="95"  text-anchor="middle" font-size="10.5">strip · remove sufixo &#8209;scl / &#8209;oai</text>
  <text x="400" y="108" text-anchor="middle" font-size="10.5">valida regex: [A&#8209;Z]\d{4}&#8209;\d{3}[\dA&#8209;Z]\d{13}</text>

  <!-- arrow N1→N2 -->
  <line x1="400" y1="106" x2="400" y2="128" stroke="#000" stroke-width="1.2" marker-end="url(#arr)"/>

  <!-- ── N2  DIAMOND: PID válido? ── -->
  <!-- center (400,150); half-w=100 half-h=26 -->
  <polygon points="400,124 500,150 400,176 300,150" fill="none" stroke="#000" stroke-width="1.2"/>
  <text x="400" y="154" text-anchor="middle" font-weight="bold">PID válido?</text>

  <!-- Não → left -->
  <line x1="300" y1="150" x2="190" y2="150" stroke="#000" stroke-width="1.2" marker-end="url(#arr)"/>
  <text x="245" y="144" text-anchor="middle" font-size="10.5" font-style="italic">Não</text>
  <!-- terminal erro_pid_invalido -->
  <rect x="88" y="133" width="100" height="34" rx="5" fill="none" stroke="#000" stroke-width="1"/>
  <text x="138" y="152" text-anchor="middle" font-size="10" font-weight="bold">erro_pid</text>
  <text x="138" y="163" text-anchor="middle" font-size="10" font-weight="bold">_invalido</text>

  <!-- Sim → down -->
  <line x1="400" y1="176" x2="400" y2="198" stroke="#000" stroke-width="1.2" marker-end="url(#arr)"/>
  <text x="408" y="191" font-size="10.5" font-style="italic">Sim</text>

  <!-- ════════════════════════════════════════════════════
       FASE 1 — ArticleMeta API  dashed box  y=200..268
  ════════════════════════════════════════════════════ -->
  <rect x="112" y="200" width="576" height="68" fill="none" stroke="#000"
        stroke-width="1.4" stroke-dasharray="6,3"/>
  <text x="400" y="218" text-anchor="middle" font-weight="bold" font-size="12">FASE 1 — ArticleMeta API</text>
  <text x="400" y="233" text-anchor="middle" font-size="10.5" font-style="italic">(saltada se &#8209;&#8209;only&#8209;html)</text>
  <text x="400" y="250" text-anchor="middle" font-size="10.5">GET articlemeta.scielo.org/api/v1/article</text>
  <text x="400" y="264" text-anchor="middle" font-size="10.5">?code={pid} &amp;collection={col} &amp;format=json</text>

  <!-- arrow →N3 -->
  <line x1="400" y1="268" x2="400" y2="290" stroke="#000" stroke-width="1.2" marker-end="url(#arr)"/>

  <!-- ── N3  DIAMOND: Dados PT na API? ── -->
  <!-- center (400,316); half-w=120 half-h=28 -->
  <polygon points="400,288 520,316 400,344 280,316" fill="none" stroke="#000" stroke-width="1.2"/>
  <text x="400" y="311" text-anchor="middle" font-weight="bold">Dados PT</text>
  <text x="400" y="326" text-anchor="middle" font-weight="bold">na API?</text>

  <!-- Sim → right → extract box -->
  <line x1="520" y1="316" x2="600" y2="316" stroke="#000" stroke-width="1.2" marker-end="url(#arr)"/>
  <text x="558" y="310" text-anchor="middle" font-size="10.5" font-style="italic">Sim</text>

  <!-- extract_pt_from_isis box  x=602..780 y=296..348 -->
  <rect x="602" y="296" width="176" height="52" fill="none" stroke="#000" stroke-width="1.2"/>
  <text x="690" y="313" text-anchor="middle" font-size="10" font-weight="bold">extract_pt_from_isis()</text>
  <text x="690" y="327" text-anchor="middle" font-size="10">titles · abstracts · keywords</text>
  <text x="690" y="341" text-anchor="middle" font-size="10">filtra lang == "pt"</text>

  <!-- extract → down → merge at y=388 -->
  <line x1="690" y1="348" x2="690" y2="388" stroke="#000" stroke-width="1.2"/>
  <line x1="690" y1="388" x2="520" y2="388" stroke="#000" stroke-width="1.2" marker-end="url(#arr)"/>

  <!-- Não → down → merge at y=388 -->
  <line x1="400" y1="344" x2="400" y2="364" stroke="#000" stroke-width="1.2"/>
  <text x="408" y="358" font-size="10.5" font-style="italic">Não</text>
  <line x1="400" y1="364" x2="280" y2="364" stroke="#000" stroke-width="1.2"/>
  <line x1="280" y1="364" x2="280" y2="388" stroke="#000" stroke-width="1.2" marker-end="url(#arr)"/>

  <!-- ── N4  DIAMOND: T · R · KW completos? ── -->
  <!-- center (400,412); half-w=120 half-h=26 -->
  <polygon points="400,386 520,412 400,438 280,412" fill="none" stroke="#000" stroke-width="1.2"/>
  <text x="400" y="407" text-anchor="middle" font-weight="bold">T · R · KW</text>
  <text x="400" y="422" text-anchor="middle" font-weight="bold">completos?</text>

  <!-- Todos → right → ok_completo via API -->
  <line x1="520" y1="412" x2="600" y2="412" stroke="#000" stroke-width="1.2" marker-end="url(#arr)"/>
  <text x="558" y="406" text-anchor="middle" font-size="10.5" font-style="italic">Todos</text>
  <rect x="602" y="396" width="130" height="32" rx="5" fill="none" stroke="#000" stroke-width="1.2"/>
  <text x="667" y="413" text-anchor="middle" font-size="10" font-weight="bold">ok_completo</text>
  <text x="667" y="424" text-anchor="middle" font-size="10">(via API)</text>

  <!-- Parcial/Não → down -->
  <line x1="400" y1="438" x2="400" y2="460" stroke="#000" stroke-width="1.2" marker-end="url(#arr)"/>
  <text x="355" y="453" text-anchor="middle" font-size="10.5" font-style="italic">Parcial / Não</text>

  <!-- ════════════════════════════════════════════════════
       FASE 2 — Fallback HTML  dashed box  y=462..522
  ════════════════════════════════════════════════════ -->
  <rect x="112" y="462" width="576" height="60" fill="none" stroke="#000"
        stroke-width="1.4" stroke-dasharray="6,3"/>
  <text x="400" y="480" text-anchor="middle" font-weight="bold" font-size="12">FASE 2 — Fallback HTML</text>
  <text x="400" y="495" text-anchor="middle" font-size="10.5" font-style="italic">(saltada se &#8209;&#8209;only&#8209;api  OU  se todos os campos já preenchidos)</text>
  <text x="400" y="512" text-anchor="middle" font-size="10.5">Campos em falta: need_t · need_r · need_k</text>

  <!-- arrow → Etapa 1 -->
  <line x1="400" y1="522" x2="400" y2="544" stroke="#000" stroke-width="1.2" marker-end="url(#arr)"/>

  <!-- ── Etapa 1 — URL Legacy ── y=546..596 -->
  <rect x="228" y="546" width="344" height="50" fill="none" stroke="#000" stroke-width="1.2"/>
  <text x="400" y="564" text-anchor="middle" font-weight="bold">Etapa 1 — URL Legacy</text>
  <text x="400" y="579" text-anchor="middle" font-size="10.5">GET scielo.br?script=sci_arttext&amp;pid={pid}&amp;lang=pt</text>
  <text x="400" y="593" text-anchor="middle" font-size="10.5">requests segue redirect automático</text>

  <!-- arrow →N5 -->
  <line x1="400" y1="596" x2="400" y2="618" stroke="#000" stroke-width="1.2" marker-end="url(#arr)"/>

  <!-- ── N5  DIAMOND: Erro HTTP? ── -->
  <!-- center (400,640); half-w=90 half-h=24 -->
  <polygon points="400,616 490,640 400,664 310,640" fill="none" stroke="#000" stroke-width="1.2"/>
  <text x="400" y="644" text-anchor="middle" font-weight="bold">Erro HTTP?</text>

  <!-- Sim → left → erro_extracao -->
  <line x1="310" y1="640" x2="210" y2="640" stroke="#000" stroke-width="1.2" marker-end="url(#arr)"/>
  <text x="259" y="634" text-anchor="middle" font-size="10.5" font-style="italic">Sim</text>
  <rect x="86" y="622" width="122" height="36" rx="5" fill="none" stroke="#000" stroke-width="1"/>
  <text x="147" y="640" text-anchor="middle" font-size="10" font-weight="bold">erro_extracao</text>
  <text x="147" y="652" text-anchor="middle" font-size="10">(return None)</text>

  <!-- Não → down -->
  <line x1="400" y1="664" x2="400" y2="686" stroke="#000" stroke-width="1.2" marker-end="url(#arr)"/>
  <text x="408" y="679" font-size="10.5" font-style="italic">Não</text>

  <!-- ── N6  DIAMOND: is_article_page(soup)? ── -->
  <!-- center (400,712); half-w=120 half-h=28 -->
  <polygon points="400,684 520,712 400,740 280,712" fill="none" stroke="#000" stroke-width="1.2"/>
  <text x="400" y="707" text-anchor="middle" font-weight="bold">is_article_page</text>
  <text x="400" y="722" text-anchor="middle" font-weight="bold">(soup)?</text>

  <!-- Annotations right -->
  <text x="528" y="698" font-size="9" fill="#333">citation_title</text>
  <text x="528" y="710" font-size="9" fill="#333">og:title + div[data-anchor=Resumo]</text>
  <text x="528" y="722" font-size="9" fill="#333">article#articleText</text>
  <text x="528" y="734" font-size="9" fill="#333">div[data-anchor="Resumo"]</text>

  <!-- Sim → right → apply_missing -->
  <!-- We'll route Sim upward-right to avoid collision with annotations -->
  <!-- Actually route down-right: go to x=526 at y=712, then down to y=760, box at 602 -->
  <!-- Let's route via bottom-right of diamond -->
  <line x1="520" y1="712" x2="596" y2="712" stroke="#000" stroke-width="1.2" marker-end="url(#arr)"/>
  <text x="556" y="706" text-anchor="middle" font-size="10.5" font-style="italic">Sim</text>

  <!-- apply_missing box  x=598..778 y=692..752 -->
  <rect x="598" y="692" width="180" height="60" fill="none" stroke="#000" stroke-width="1.2"/>
  <text x="688" y="710" text-anchor="middle" font-size="10" font-weight="bold">apply_missing(meta, body)</text>
  <text x="688" y="724" text-anchor="middle" font-size="10">Para cada campo em falta:</text>
  <text x="688" y="737" text-anchor="middle" font-size="10">1. meta tags (citation_*)</text>
  <text x="688" y="750" text-anchor="middle" font-size="10">2. corpo HTML (.article-title…)</text>

  <!-- apply_missing → down → merge at y=820 -->
  <line x1="688" y1="752" x2="688" y2="820" stroke="#000" stroke-width="1.2"/>
  <line x1="688" y1="820" x2="522" y2="820" stroke="#000" stroke-width="1.2" marker-end="url(#arr)"/>

  <!-- Não → down -->
  <line x1="400" y1="740" x2="400" y2="762" stroke="#000" stroke-width="1.2" marker-end="url(#arr)"/>
  <text x="378" y="755" text-anchor="end" font-size="10.5" font-style="italic">Não</text>

  <!-- ── N7  DIAMOND: is_aop(pid)? ── -->
  <!-- center (400,786); half-w=90 half-h=24 -->
  <polygon points="400,762 490,786 400,810 310,786" fill="none" stroke="#000" stroke-width="1.2"/>
  <text x="400" y="790" text-anchor="middle" font-weight="bold">is_aop(pid)?</text>
  <text x="218" y="780" text-anchor="end" font-size="9" fill="#333">pid[14:17] == "005"</text>

  <!-- Não → down → merge at y=820 -->
  <line x1="400" y1="810" x2="400" y2="820" stroke="#000" stroke-width="1.2" marker-end="url(#arr)"/>
  <text x="408" y="818" font-size="10.5" font-style="italic">Não</text>

  <!-- Sim → left → Etapa 4 AoP -->
  <line x1="310" y1="786" x2="210" y2="786" stroke="#000" stroke-width="1.2" marker-end="url(#arr)"/>
  <text x="259" y="780" text-anchor="middle" font-size="10.5" font-style="italic">Sim</text>

  <!-- Etapa 4 box  x=20..208 y=756..830 -->
  <rect x="20" y="756" width="188" height="80" fill="none" stroke="#000" stroke-width="1.2"/>
  <text x="114" y="774" text-anchor="middle" font-size="10" font-weight="bold">Etapa 4 — AoP</text>
  <text x="114" y="788" text-anchor="middle" font-size="10">Extrair og:url da home</text>
  <text x="114" y="801" text-anchor="middle" font-size="10">Forçar lang=pt</text>
  <text x="114" y="814" text-anchor="middle" font-size="10">GET og:url → is_article_page?</text>
  <text x="114" y="827" text-anchor="middle" font-size="10">Sim → apply_missing()</text>

  <!-- Etapa 4 → down → merge at y=856 -->
  <line x1="114" y1="836" x2="114" y2="856" stroke="#000" stroke-width="1.2"/>
  <line x1="114" y1="856" x2="280" y2="856" stroke="#000" stroke-width="1.2" marker-end="url(#arr)"/>

  <!-- merge at y=820 → down to N8 -->
  <line x1="400" y1="820" x2="400" y2="856" stroke="#000" stroke-width="1.2"/>
  <line x1="280"  y1="856" x2="400" y2="856" stroke="#000" stroke-width="1.2"/>
  <line x1="400" y1="856" x2="400" y2="876" stroke="#000" stroke-width="1.2" marker-end="url(#arr)"/>

  <!-- ── N8  DIAMOND: Língua ≠ PT e faltam campos? ── -->
  <!-- center (400,904); half-w=130 half-h=30 -->
  <polygon points="400,874 530,904 400,934 270,904" fill="none" stroke="#000" stroke-width="1.2"/>
  <text x="400" y="898" text-anchor="middle" font-weight="bold">Língua ≠ PT</text>
  <text x="400" y="913" text-anchor="middle" font-weight="bold">e faltam campos?</text>

  <!-- Sim → right → Etapa 3 -->
  <line x1="530" y1="904" x2="610" y2="904" stroke="#000" stroke-width="1.2" marker-end="url(#arr)"/>
  <text x="568" y="898" text-anchor="middle" font-size="10.5" font-style="italic">Sim</text>

  <!-- Etapa 3 box  x=612..790 y=876..944 -->
  <rect x="612" y="876" width="178" height="68" fill="none" stroke="#000" stroke-width="1.2"/>
  <text x="701" y="894" text-anchor="middle" font-size="10" font-weight="bold">Etapa 3 — Link PT</text>
  <text x="701" y="908" text-anchor="middle" font-size="10">_find_pt_link(soup)</text>
  <text x="701" y="921" text-anchor="middle" font-size="10">Procura href ?lang=pt</text>
  <text x="701" y="934" text-anchor="middle" font-size="10">GET link PT</text>
  <text x="701" y="947" text-anchor="middle" font-size="10">apply_missing()</text>

  <!-- Etapa 3 → down → merge at y=984 -->
  <line x1="701" y1="944" x2="701" y2="984" stroke="#000" stroke-width="1.2"/>
  <line x1="701" y1="984" x2="532" y2="984" stroke="#000" stroke-width="1.2" marker-end="url(#arr)"/>

  <!-- Não → down → merge at y=984 -->
  <line x1="400" y1="934" x2="400" y2="984" stroke="#000" stroke-width="1.2"/>
  <text x="408" y="962" font-size="10.5" font-style="italic">Não</text>
  <line x1="400" y1="984" x2="532" y2="984" stroke="#000" stroke-width="1.2"/>
  <line x1="400" y1="984" x2="400" y2="1004" stroke="#000" stroke-width="1.2" marker-end="url(#arr)"/>

  <!-- ════════════════════════════════════════════════════
       RESULTADO FINAL  y=1006..1120
  ════════════════════════════════════════════════════ -->
  <rect x="200" y="1006" width="400" height="114" rx="10"
        fill="none" stroke="#000" stroke-width="1.5"/>
  <text x="400" y="1026" text-anchor="middle" font-weight="bold" font-size="12">Resultado Final</text>
  <line x1="210" y1="1032" x2="590" y2="1032" stroke="#000" stroke-width="0.8"/>

  <text x="400" y="1050" text-anchor="middle" font-size="11">T &#8743; R &#8743; KW &#160;&#x27F6;&#160; <tspan font-weight="bold">ok_completo</tspan></text>
  <text x="400" y="1068" text-anchor="middle" font-size="11">T &#8744; R &#8744; KW &#160;&#x27F6;&#160; <tspan font-weight="bold">ok_parcial</tspan></text>
  <text x="400" y="1086" text-anchor="middle" font-size="11">URL tentada, 0 campos &#160;&#x27F6;&#160; <tspan font-weight="bold">nada_encontrado</tspan></text>
  <text x="400" y="1104" text-anchor="middle" font-size="11">Falha de rede / HTTP &#160;&#x27F6;&#160; <tspan font-weight="bold">erro_extracao</tspan></text>

  <!-- ════════════════════════════════════════════════════
       PRIORITY TABLE  y=1136..1260
  ════════════════════════════════════════════════════ -->
  <rect x="10" y="1136" width="780" height="124" fill="none" stroke="#000" stroke-width="1" stroke-dasharray="4,3"/>
  <text x="400" y="1155" text-anchor="middle" font-weight="bold" font-size="11">apply_missing() — Prioridade de fonte por campo</text>
  <line x1="18" y1="1160" x2="782" y2="1160" stroke="#000" stroke-width="0.7"/>

  <!-- header row -->
  <text x="40"  y="1176" font-size="10.5" font-weight="bold">Prioridade</text>
  <text x="160" y="1176" font-size="10.5" font-weight="bold">Fonte</text>
  <text x="310" y="1176" font-size="10.5" font-weight="bold">Selectores HTML</text>
  <line x1="18" y1="1180" x2="782" y2="1180" stroke="#000" stroke-width="0.5"/>

  <!-- row 1 -->
  <text x="40"  y="1197" font-size="10.5">1.ª  (preferida)</text>
  <text x="160" y="1197" font-size="10.5">Meta tags</text>
  <text x="310" y="1197" font-size="10" font-family="Courier New, monospace">citation_title &#183; citation_abstract &#183; citation_keywords</text>

  <!-- row 2 -->
  <text x="40"  y="1222" font-size="10.5">2.ª  (fallback)</text>
  <text x="160" y="1222" font-size="10.5">Corpo HTML</text>
  <text x="310" y="1222" font-size="10" font-family="Courier New, monospace">h1.article-title &#183; div[data-anchor=Resumo] p &#183; .keywords span</text>

  <line x1="18" y1="1232" x2="782" y2="1232" stroke="#000" stroke-width="0.5"/>

  <!-- note -->
  <text x="400" y="1248" text-anchor="middle" font-size="10" font-style="italic">A primeira fonte com valor vence; as restantes não são tentadas para esse campo.</text>

  <!-- ════════════════════════════════════════════════════
       CAPTION
  ════════════════════════════════════════════════════ -->
  <text x="400" y="1290" text-anchor="middle" font-size="11" font-style="italic">
    Figura 1 — Algoritmo de extração do SciELO Scraper v2.4.
  </text>
  <text x="400" y="1308" text-anchor="middle" font-size="11" font-style="italic">
    Fase 1: ArticleMeta API (ISIS-JSON). Fase 2: fallback HTML com quatro etapas de recuperação.
  </text>
  <text x="400" y="1326" text-anchor="middle" font-size="11" font-style="italic">
    AoP = Ahead of Print (pid[14:17] == "005"). T = Título; R = Resumo; KW = Palavras-chave.
  </text>

</svg>
